<?xml version="1.0" encoding="utf-8"?>
<!-- Generator: Adobe Illustrator 22.0.1, SVG Export Plug-In . SVG Version: 6.00 Build 0)  -->
<svg version="1.1" id="Ebene_1" xmlns="http://www.w3.org/2000/svg" xmlns:xlink="http://www.w3.org/1999/xlink" x="0px" y="0px"
	 viewBox="0 0 72 72" style="enable-background:new 0 0 72 72;" xml:space="preserve">
<style type="text/css">
	.st0{fill:#FFFFFF;}
	.st1{clip-path:url(#SVGID_2_);}
	.st2{clip-path:url(#SVGID_4_);enable-background:new    ;}
	.st3{clip-path:url(#SVGID_6_);}
	.st4{clip-path:url(#SVGID_9_);}
	.st5{clip-path:url(#SVGID_13_);}
	.st6{clip-path:url(#SVGID_17_);}
	.st7{clip-path:url(#SVGID_21_);}
	.st8{fill:#A0A0A0;}
	.st9{fill:none;}
	.st10{fill:#FF52A0;}
	.st11{fill:#42ABEE;}
</style>
<g>
	<defs>
		<polygon id="SVGID_1_" points="407,-724 423,-724 423,-750 391,-750 391,-724 		"/>
	</defs>
	<clipPath id="SVGID_2_">
		<use xlink:href="#SVGID_1_"  style="overflow:visible;"/>
	</clipPath>
	<g class="st1">
		<defs>
			<rect id="SVGID_3_" x="-979" y="-760" width="1440" height="1024"/>
		</defs>
		<clipPath id="SVGID_4_">
			<use xlink:href="#SVGID_3_"  style="overflow:visible;"/>
		</clipPath>
	</g>
</g>
<g>
	<defs>
		<rect id="SVGID_23_" x="-1200.2" y="-568.8" width="1317" height="936.5"/>
	</defs>
	<clipPath id="SVGID_6_">
		<use xlink:href="#SVGID_23_"  style="overflow:visible;"/>
	</clipPath>
</g>
<g>
	<g>
		<defs>
			<rect id="SVGID_25_" x="-1200.2" y="-568.8" width="1317" height="936.5"/>
		</defs>
		<clipPath id="SVGID_9_">
			<use xlink:href="#SVGID_25_"  style="overflow:visible;"/>
		</clipPath>
	</g>
</g>
<g>
	<defs>
		<rect id="SVGID_27_" x="-1200.2" y="-568.8" width="1317" height="936.5"/>
	</defs>
	<clipPath id="SVGID_10_">
		<use xlink:href="#SVGID_27_"  style="overflow:visible;"/>
	</clipPath>
</g>
<g>
	<defs>
		<rect id="SVGID_29_" x="-1200.2" y="-568.8" width="1317" height="936.5"/>
	</defs>
	<clipPath id="SVGID_13_">
		<use xlink:href="#SVGID_29_"  style="overflow:visible;"/>
	</clipPath>
</g>
<g>
	<defs>
		<rect id="SVGID_31_" x="-1200.2" y="-568.8" width="1317" height="936.5"/>
	</defs>
	<clipPath id="SVGID_14_">
		<use xlink:href="#SVGID_31_"  style="overflow:visible;"/>
	</clipPath>
</g>
<g>
	<defs>
		<rect id="SVGID_33_" x="-1200.2" y="-568.8" width="1317" height="936.5"/>
	</defs>
	<clipPath id="SVGID_17_">
		<use xlink:href="#SVGID_33_"  style="overflow:visible;"/>
	</clipPath>
</g>
<g>
	<defs>
		<rect id="SVGID_35_" x="-1200.2" y="-568.8" width="1317" height="936.5"/>
	</defs>
	<clipPath id="SVGID_18_">
		<use xlink:href="#SVGID_35_"  style="overflow:visible;"/>
	</clipPath>
</g>
<g>
	<polygon class="st10" points="46,36 38,36 38,38 14,38 14,36 12,36 12,34 10,34 10,32 6,32 6,34 8,34 8,38 10,38 10,40 10,42 
		14,42 14,44 18,44 18,46 20,46 20,48 40,48 40,52 38,52 38,56 38,60 36,60 36,64 40,64 40,60 42,60 42,56 42,52 44,52 44,48 46,48 
		46,44 48,44 48,40 46,40 	"/>
</g>
<g>
</g>
<polygon points="68,12 64,12 64,10 62,10 62,8 46,8 46,10 42,10 42,12 26,12 22,12 22,10 18,10 18,8 14,8 14,10 12,10 12,12 12,14 
	10,14 10,18 8,18 8,22 6,22 6,30 10,30 10,32 14,32 14,34 16,34 16,36 38,36 38,34 48,34 48,36 52,36 52,38 54,38 54,40 56,40 
	56,44 54,44 54,48 54,52 52,52 52,56 52,60 50,60 50,64 54,64 54,60 56,60 56,56 56,52 58,52 58,48 58,44 60,44 60,40 62,40 62,36 
	62,34 64,34 64,30 66,30 66,22 68,22 68,20 68,18 70,18 70,14 68,14 "/>
<g>
</g>
<g>
</g>
</svg>
