<?xml version="1.0" encoding="utf-8"?>
<!-- Generator: Adobe Illustrator 22.0.1, SVG Export Plug-In . SVG Version: 6.00 Build 0)  -->
<svg version="1.1" id="Ebene_1" xmlns="http://www.w3.org/2000/svg" xmlns:xlink="http://www.w3.org/1999/xlink" x="0px" y="0px"
	 viewBox="0 0 36 36" style="enable-background:new 0 0 36 36;" xml:space="preserve">
<style type="text/css">
	.st0{fill:#FFFFFF;}
	.st1{clip-path:url(#SVGID_2_);}
	.st2{clip-path:url(#SVGID_4_);enable-background:new    ;}
	.st3{clip-path:url(#SVGID_6_);}
	.st4{clip-path:url(#SVGID_9_);}
	.st5{clip-path:url(#SVGID_13_);}
	.st6{clip-path:url(#SVGID_17_);}
	.st7{clip-path:url(#SVGID_21_);}
	.st8{fill:#A0A0A0;}
	.st9{fill:none;}
	.st10{fill:#FF52A0;}
	.st11{fill:#42ABEE;}
</style>
<g>
	<defs>
		<polygon id="SVGID_1_" points="491.1,-193.9 507.1,-193.9 507.1,-219.9 475.1,-219.9 475.1,-193.9 		"/>
	</defs>
	<clipPath id="SVGID_2_">
		<use xlink:href="#SVGID_1_"  style="overflow:visible;"/>
	</clipPath>
	<g class="st1">
		<defs>
			<rect id="SVGID_3_" x="-894.9" y="-229.9" width="1440" height="1024"/>
		</defs>
		<clipPath id="SVGID_4_">
			<use xlink:href="#SVGID_3_"  style="overflow:visible;"/>
		</clipPath>
	</g>
</g>
<g>
	<defs>
		<rect id="SVGID_23_" x="-1116.1" y="-38.7" width="1317" height="936.5"/>
	</defs>
	<clipPath id="SVGID_6_">
		<use xlink:href="#SVGID_23_"  style="overflow:visible;"/>
	</clipPath>
</g>
<g>
	<g>
		<defs>
			<rect id="SVGID_25_" x="-1116.1" y="-38.7" width="1317" height="936.5"/>
		</defs>
		<clipPath id="SVGID_9_">
			<use xlink:href="#SVGID_25_"  style="overflow:visible;"/>
		</clipPath>
	</g>
</g>
<g>
	<defs>
		<rect id="SVGID_27_" x="-1116.1" y="-38.7" width="1317" height="936.5"/>
	</defs>
	<clipPath id="SVGID_10_">
		<use xlink:href="#SVGID_27_"  style="overflow:visible;"/>
	</clipPath>
</g>
<g>
	<defs>
		<rect id="SVGID_29_" x="-1116.1" y="-38.7" width="1317" height="936.5"/>
	</defs>
	<clipPath id="SVGID_13_">
		<use xlink:href="#SVGID_29_"  style="overflow:visible;"/>
	</clipPath>
</g>
<g>
	<defs>
		<rect id="SVGID_31_" x="-1116.1" y="-38.7" width="1317" height="936.5"/>
	</defs>
	<clipPath id="SVGID_14_">
		<use xlink:href="#SVGID_31_"  style="overflow:visible;"/>
	</clipPath>
</g>
<g>
	<defs>
		<rect id="SVGID_33_" x="-1116.1" y="-38.7" width="1317" height="936.5"/>
	</defs>
	<clipPath id="SVGID_17_">
		<use xlink:href="#SVGID_33_"  style="overflow:visible;"/>
	</clipPath>
</g>
<g>
	<defs>
		<rect id="SVGID_35_" x="-1116.1" y="-38.7" width="1317" height="936.5"/>
	</defs>
	<clipPath id="SVGID_18_">
		<use xlink:href="#SVGID_35_"  style="overflow:visible;"/>
	</clipPath>
</g>
<g>
	<rect x="5" y="29" class="st10" width="8" height="2"/>
</g>
<g>
	<polygon class="st11" points="23,17 21,17 21,19 19,19 19,21 17,21 17,23 15,23 15,25 15,27 19,27 19,25 21,25 21,23 23,23 23,21 
		25,21 25,19 27,19 27,17 27,15 23,15 	"/>
</g>
<polygon points="21,15 21,17 23,17 23,15 25,15 25,13 23,13 23,5 21,5 3,5 3,7 21,7 "/>
<polygon points="23,35 23,23 21,23 21,25 19,25 19,27 21,27 21,33 3,33 3,7 1,7 1,33 1,35 21,35 "/>
<rect x="5" y="9" width="14" height="2"/>
<rect x="5" y="13" width="14" height="2"/>
<rect x="5" y="17" width="6" height="2"/>
<rect x="13" y="23" width="2" height="2"/>
<rect x="17" y="27" width="2" height="2"/>
<rect x="23" y="21" width="2" height="2"/>
<polygon points="27,15 29,15 29,17 31,17 31,13 29,13 29,11 25,11 25,13 27,13 "/>
<rect x="25" y="19" width="2" height="2"/>
<rect x="15" y="21" width="2" height="2"/>
<rect x="17" y="19" width="2" height="2"/>
<rect x="19" y="17" width="2" height="2"/>
<rect x="11" y="25" width="2" height="4"/>
<rect x="27" y="17" width="2" height="2"/>
<rect x="13" y="29" width="4" height="2"/>
<g>
</g>
</svg>
