<?xml version="1.0" encoding="utf-8"?>
<!-- Generator: Adobe Illustrator 22.0.1, SVG Export Plug-In . SVG Version: 6.00 Build 0)  -->
<svg version="1.1" id="Ebene_1" xmlns="http://www.w3.org/2000/svg" xmlns:xlink="http://www.w3.org/1999/xlink" x="0px" y="0px"
	 viewBox="0 0 36 36" style="enable-background:new 0 0 36 36;" xml:space="preserve">
<style type="text/css">
	.st0{fill:#FFFFFF;}
	.st1{clip-path:url(#SVGID_2_);}
	.st2{clip-path:url(#SVGID_4_);enable-background:new    ;}
	.st3{clip-path:url(#SVGID_6_);}
	.st4{clip-path:url(#SVGID_9_);}
	.st5{clip-path:url(#SVGID_13_);}
	.st6{clip-path:url(#SVGID_17_);}
	.st7{clip-path:url(#SVGID_21_);}
	.st8{fill:#A0A0A0;}
	.st9{fill:none;}
	.st10{fill:#FF52A0;}
	.st11{fill:#42ABEE;}
</style>
<g>
	<defs>
		<polygon id="SVGID_1_" points="719,-466 735,-466 735,-492 703,-492 703,-466 		"/>
	</defs>
	<clipPath id="SVGID_2_">
		<use xlink:href="#SVGID_1_"  style="overflow:visible;"/>
	</clipPath>
	<g class="st1">
		<defs>
			<rect id="SVGID_3_" x="-667" y="-502" width="1440" height="1024"/>
		</defs>
		<clipPath id="SVGID_4_">
			<use xlink:href="#SVGID_3_"  style="overflow:visible;"/>
		</clipPath>
	</g>
</g>
<g>
	<defs>
		<rect id="SVGID_23_" x="-888.2" y="-310.8" width="1317" height="936.5"/>
	</defs>
	<clipPath id="SVGID_6_">
		<use xlink:href="#SVGID_23_"  style="overflow:visible;"/>
	</clipPath>
</g>
<g>
	<g>
		<defs>
			<rect id="SVGID_25_" x="-888.2" y="-310.8" width="1317" height="936.5"/>
		</defs>
		<clipPath id="SVGID_9_">
			<use xlink:href="#SVGID_25_"  style="overflow:visible;"/>
		</clipPath>
	</g>
</g>
<g>
	<defs>
		<rect id="SVGID_27_" x="-888.2" y="-310.8" width="1317" height="936.5"/>
	</defs>
	<clipPath id="SVGID_10_">
		<use xlink:href="#SVGID_27_"  style="overflow:visible;"/>
	</clipPath>
</g>
<g>
	<defs>
		<rect id="SVGID_29_" x="-888.2" y="-310.8" width="1317" height="936.5"/>
	</defs>
	<clipPath id="SVGID_13_">
		<use xlink:href="#SVGID_29_"  style="overflow:visible;"/>
	</clipPath>
</g>
<g>
	<defs>
		<rect id="SVGID_31_" x="-888.2" y="-310.8" width="1317" height="936.5"/>
	</defs>
	<clipPath id="SVGID_14_">
		<use xlink:href="#SVGID_31_"  style="overflow:visible;"/>
	</clipPath>
</g>
<g>
	<defs>
		<rect id="SVGID_33_" x="-888.2" y="-310.8" width="1317" height="936.5"/>
	</defs>
	<clipPath id="SVGID_17_">
		<use xlink:href="#SVGID_33_"  style="overflow:visible;"/>
	</clipPath>
</g>
<g>
	<defs>
		<rect id="SVGID_35_" x="-888.2" y="-310.8" width="1317" height="936.5"/>
	</defs>
	<clipPath id="SVGID_18_">
		<use xlink:href="#SVGID_35_"  style="overflow:visible;"/>
	</clipPath>
</g>
<g>
	<polygon class="st10" points="24,20 26,20 26,18 28,18 28,16 26,16 26,14 24,14 24,16 22,16 22,18 24,18 	"/>
</g>
<g>
	<rect x="8" y="26" class="st11" width="6" height="2"/>
</g>
<path d="M4,8H2v4v20v2h32v-2V12v-2H4V8z M32,12v20H4V12H32z"/>
<polygon points="2,6 32,6 32,8 34,8 34,6 34,4 2,4 "/>
<rect x="8" y="14" width="6" height="2"/>
<rect x="8" y="18" width="6" height="2"/>
<rect x="22" y="24" width="2" height="2"/>
<rect x="24" y="26" width="2" height="2"/>
<rect x="22" y="28" width="2" height="2"/>
<rect x="26" y="24" width="2" height="2"/>
<rect x="26" y="28" width="2" height="2"/>
<g>
</g>
<g>
</g>
</svg>
