<?xml version="1.0" encoding="utf-8"?>
<!-- Generator: Adobe Illustrator 22.0.1, SVG Export Plug-In . SVG Version: 6.00 Build 0)  -->
<svg version="1.1" id="Ebene_1" xmlns="http://www.w3.org/2000/svg" xmlns:xlink="http://www.w3.org/1999/xlink" x="0px" y="0px"
	 viewBox="0 0 36 36" style="enable-background:new 0 0 36 36;" xml:space="preserve">
<style type="text/css">
	.st0{fill:#FFFFFF;}
	.st1{clip-path:url(#SVGID_2_);}
	.st2{clip-path:url(#SVGID_4_);enable-background:new    ;}
	.st3{clip-path:url(#SVGID_6_);}
	.st4{clip-path:url(#SVGID_9_);}
	.st5{clip-path:url(#SVGID_13_);}
	.st6{clip-path:url(#SVGID_17_);}
	.st7{clip-path:url(#SVGID_21_);}
	.st8{fill:#A0A0A0;}
	.st9{fill:none;}
	.st10{fill:#FF52A0;}
	.st11{fill:#42ABEE;}
</style>
<g>
	<defs>
		<polygon id="SVGID_1_" points="690,-194 706,-194 706,-220 674,-220 674,-194 		"/>
	</defs>
	<clipPath id="SVGID_2_">
		<use xlink:href="#SVGID_1_"  style="overflow:visible;"/>
	</clipPath>
	<g class="st1">
		<defs>
			<rect id="SVGID_3_" x="-696" y="-230" width="1440" height="1024"/>
		</defs>
		<clipPath id="SVGID_4_">
			<use xlink:href="#SVGID_3_"  style="overflow:visible;"/>
		</clipPath>
	</g>
</g>
<g>
	<defs>
		<rect id="SVGID_23_" x="-917.2" y="-38.8" width="1317" height="936.5"/>
	</defs>
	<clipPath id="SVGID_6_">
		<use xlink:href="#SVGID_23_"  style="overflow:visible;"/>
	</clipPath>
</g>
<g>
	<g>
		<defs>
			<rect id="SVGID_25_" x="-917.2" y="-38.8" width="1317" height="936.5"/>
		</defs>
		<clipPath id="SVGID_9_">
			<use xlink:href="#SVGID_25_"  style="overflow:visible;"/>
		</clipPath>
	</g>
</g>
<g>
	<defs>
		<rect id="SVGID_27_" x="-917.2" y="-38.8" width="1317" height="936.5"/>
	</defs>
	<clipPath id="SVGID_10_">
		<use xlink:href="#SVGID_27_"  style="overflow:visible;"/>
	</clipPath>
</g>
<g>
	<defs>
		<rect id="SVGID_29_" x="-917.2" y="-38.8" width="1317" height="936.5"/>
	</defs>
	<clipPath id="SVGID_13_">
		<use xlink:href="#SVGID_29_"  style="overflow:visible;"/>
	</clipPath>
</g>
<g>
	<defs>
		<rect id="SVGID_31_" x="-917.2" y="-38.8" width="1317" height="936.5"/>
	</defs>
	<clipPath id="SVGID_14_">
		<use xlink:href="#SVGID_31_"  style="overflow:visible;"/>
	</clipPath>
</g>
<g>
	<defs>
		<rect id="SVGID_33_" x="-917.2" y="-38.8" width="1317" height="936.5"/>
	</defs>
	<clipPath id="SVGID_17_">
		<use xlink:href="#SVGID_33_"  style="overflow:visible;"/>
	</clipPath>
</g>
<g>
	<defs>
		<rect id="SVGID_35_" x="-917.2" y="-38.8" width="1317" height="936.5"/>
	</defs>
	<clipPath id="SVGID_18_">
		<use xlink:href="#SVGID_35_"  style="overflow:visible;"/>
	</clipPath>
</g>
<g>
	<rect x="11" y="15" class="st10" width="10" height="2"/>
</g>
<g>
	<rect x="11" y="11" class="st11" width="10" height="2"/>
</g>
<rect x="5" y="16" width="2" height="2"/>
<rect x="7" y="18" width="2" height="2"/>
<rect x="9" y="20" width="2" height="2"/>
<rect x="5" y="29" width="2" height="2"/>
<rect x="7" y="27" width="2" height="2"/>
<rect x="9" y="25" width="2" height="2"/>
<rect x="11" y="23" width="2" height="2"/>
<rect x="13" y="21" width="2" height="2"/>
<rect x="15" y="19" width="2" height="2"/>
<rect x="17" y="21" width="2" height="2"/>
<rect x="19" y="23" width="2" height="2"/>
<rect x="21" y="25" width="2" height="2"/>
<rect x="23" y="27" width="2" height="2"/>
<rect x="25" y="29" width="2" height="2"/>
<polygon points="29,35 31,35 31,33 31,12 29,12 29,14 27,14 27,16 29,16 29,31 27,31 27,33 5,33 5,31 3,31 3,16 5,16 5,14 3,14 
	3,12 1,12 1,35 3,35 "/>
<polygon points="9,7 23,7 23,16 25,16 25,7 25,5 7,5 7,7 7,16 9,16 "/>
<rect x="25" y="16" width="2" height="2"/>
<rect x="23" y="18" width="2" height="2"/>
<rect x="21" y="20" width="2" height="2"/>
<g>
</g>
</svg>
