<?xml version="1.0" encoding="utf-8"?>
<!-- Generator: Adobe Illustrator 22.0.1, SVG Export Plug-In . SVG Version: 6.00 Build 0)  -->
<svg version="1.1" id="Ebene_1" xmlns="http://www.w3.org/2000/svg" xmlns:xlink="http://www.w3.org/1999/xlink" x="0px" y="0px"
	 viewBox="0 0 36 36" style="enable-background:new 0 0 36 36;" xml:space="preserve">
<style type="text/css">
	.st0{fill:#CCCCCC;}
	.st1{fill:#E6E6E6;}
	.st2{fill:#FF52A0;}
	.st3{fill:#42ABEE;}
	.st4{fill:#FFFFFF;}
	.st5{clip-path:url(#SVGID_2_);}
	.st6{clip-path:url(#SVGID_4_);enable-background:new    ;}
	.st7{clip-path:url(#SVGID_6_);}
	.st8{clip-path:url(#SVGID_8_);}
	.st9{clip-path:url(#SVGID_10_);fill:#FFFFFF;}
	.st10{clip-path:url(#SVGID_12_);}
	.st11{clip-path:url(#SVGID_14_);fill:#FFFFFF;}
	.st12{clip-path:url(#SVGID_16_);}
	.st13{clip-path:url(#SVGID_18_);fill:#FFFFFF;}
	.st14{clip-path:url(#SVGID_20_);}
	.st15{clip-path:url(#SVGID_22_);fill:#FFFFFF;}
	.st16{fill:#DBDBDB;}
	.st17{clip-path:url(#SVGID_24_);}
	.st18{clip-path:url(#SVGID_26_);fill:#42ABEE;}
	.st19{clip-path:url(#SVGID_28_);}
	.st20{clip-path:url(#SVGID_30_);fill:#FFFFFF;}
	.st21{clip-path:url(#SVGID_32_);}
	.st22{clip-path:url(#SVGID_34_);}
	.st23{clip-path:url(#SVGID_36_);}
	.st24{clip-path:url(#SVGID_38_);}
	.st25{clip-path:url(#SVGID_40_);}
	.st26{clip-path:url(#SVGID_42_);}
	.st27{clip-path:url(#SVGID_44_);}
	.st28{clip-path:url(#SVGID_46_);}
	.st29{clip-path:url(#SVGID_48_);}
	.st30{clip-path:url(#SVGID_50_);}
	.st31{fill:#A0A0A0;}
	.st32{clip-path:url(#SVGID_52_);}
	.st33{fill:#FF0000;}
	.st34{fill:#ABABAB;}
	.st35{fill:#1D1D1B;}
</style>
<g>
	<defs>
		<polygon id="SVGID_1_" points="683,-592 699,-592 699,-618 667,-618 667,-592 		"/>
	</defs>
	<clipPath id="SVGID_2_">
		<use xlink:href="#SVGID_1_"  style="overflow:visible;"/>
	</clipPath>
	<g class="st5">
		<defs>
			<rect id="SVGID_3_" x="-703" y="-628" width="1440" height="1024"/>
		</defs>
		<clipPath id="SVGID_4_">
			<use xlink:href="#SVGID_3_"  style="overflow:visible;"/>
		</clipPath>
	</g>
</g>
<g>
	<defs>
		<rect id="SVGID_23_" x="93" y="6.2" width="21.9" height="19"/>
	</defs>
	<clipPath id="SVGID_6_">
		<use xlink:href="#SVGID_23_"  style="overflow:visible;"/>
	</clipPath>
	<g class="st7">
		<defs>
			<rect id="SVGID_25_" x="-1087" y="-539" width="1440" height="1024"/>
		</defs>
		<clipPath id="SVGID_8_">
			<use xlink:href="#SVGID_25_"  style="overflow:visible;"/>
		</clipPath>
	</g>
</g>
<g>
	<defs>
		<polygon id="SVGID_27_" points="93,6.2 93,25.2 96.4,25.2 96.4,9.6 114.9,9.6 114.9,6.2 		"/>
	</defs>
	<clipPath id="SVGID_10_">
		<use xlink:href="#SVGID_27_"  style="overflow:visible;"/>
	</clipPath>
	<g style="clip-path:url(#SVGID_10_);">
		<defs>
			<rect id="SVGID_29_" x="-1087" y="-539" width="1440" height="1024"/>
		</defs>
		<clipPath id="SVGID_12_">
			<use xlink:href="#SVGID_29_"  style="overflow:visible;"/>
		</clipPath>
	</g>
</g>
<g>
	<defs>
		<rect id="SVGID_31_" x="99.8" y="-6" width="8.2" height="2"/>
	</defs>
	<clipPath id="SVGID_14_">
		<use xlink:href="#SVGID_31_"  style="overflow:visible;"/>
	</clipPath>
	<g style="clip-path:url(#SVGID_14_);">
		<defs>
			<rect id="SVGID_33_" x="-1087" y="-539" width="1440" height="1024"/>
		</defs>
		<clipPath id="SVGID_16_">
			<use xlink:href="#SVGID_33_"  style="overflow:visible;"/>
		</clipPath>
	</g>
</g>
<g>
	<defs>
		<path id="SVGID_35_" d="M95.1,23.1h17.8V8.2h-11.5h-6.3V23.1z M110.1-1.9v8.1H97.8v-8.1h-2.1v8.1H93v19h21.9v-19h-2.7v-8.1H110.1z
			"/>
	</defs>
	<clipPath id="SVGID_18_">
		<use xlink:href="#SVGID_35_"  style="overflow:visible;"/>
	</clipPath>
	<g style="clip-path:url(#SVGID_18_);">
		<defs>
			<rect id="SVGID_37_" x="-1087" y="-539" width="1440" height="1024"/>
		</defs>
		<clipPath id="SVGID_20_">
			<use xlink:href="#SVGID_37_"  style="overflow:visible;"/>
		</clipPath>
	</g>
</g>
<g>
	<defs>
		<rect id="SVGID_39_" x="97.8" y="-3.9" width="2.1" height="2"/>
	</defs>
	<clipPath id="SVGID_22_">
		<use xlink:href="#SVGID_39_"  style="overflow:visible;"/>
	</clipPath>
	<g style="clip-path:url(#SVGID_22_);">
		<defs>
			<rect id="SVGID_41_" x="-1087" y="-539" width="1440" height="1024"/>
		</defs>
		<clipPath id="SVGID_24_">
			<use xlink:href="#SVGID_41_"  style="overflow:visible;"/>
		</clipPath>
	</g>
</g>
<g>
	<defs>
		<rect id="SVGID_43_" x="108" y="-3.9" width="2.1" height="2"/>
	</defs>
	<clipPath id="SVGID_26_">
		<use xlink:href="#SVGID_43_"  style="overflow:visible;"/>
	</clipPath>
	<g style="clip-path:url(#SVGID_26_);">
		<defs>
			<rect id="SVGID_45_" x="-1087" y="-539" width="1440" height="1024"/>
		</defs>
		<clipPath id="SVGID_28_">
			<use xlink:href="#SVGID_45_"  style="overflow:visible;"/>
		</clipPath>
	</g>
</g>
<g>
	<defs>
		<polygon id="SVGID_47_" points="103.3,20.1 104.6,20.1 104.6,16.7 106,16.7 106,12.6 101.9,12.6 101.9,16.7 103.3,16.7 		"/>
	</defs>
	<clipPath id="SVGID_30_">
		<use xlink:href="#SVGID_47_"  style="overflow:visible;"/>
	</clipPath>
	<g style="clip-path:url(#SVGID_30_);">
		<defs>
			<rect id="SVGID_49_" x="-1087" y="-539" width="1440" height="1024"/>
		</defs>
		<clipPath id="SVGID_32_">
			<use xlink:href="#SVGID_49_"  style="overflow:visible;"/>
		</clipPath>
	</g>
</g>
<rect x="24" y="8" transform="matrix(-1 -1.224647e-16 1.224647e-16 -1 50 18)" class="st2" width="2" height="2"/>
<rect x="8" y="24" transform="matrix(-1 -1.224647e-16 1.224647e-16 -1 18 50)" class="st3" width="2" height="2"/>
<rect x="20" y="12" transform="matrix(-1 -1.224647e-16 1.224647e-16 -1 42 26)" class="st35" width="2" height="2"/>
<g>
	<polygon points="4,4 8,4 8,2 2,2 2,4 2,30 2,32 8,32 8,30 4,30 	"/>
	<polygon points="26,2 26,4 30,4 30,30 26,30 26,32 32,32 32,30 32,4 32,2 	"/>
	<rect x="8" y="8" width="2" height="2"/>
	<rect x="16" y="8" width="2" height="2"/>
	<rect x="8" y="16" width="2" height="2"/>
	<rect x="24" y="16" width="2" height="2"/>
	<rect x="16" y="16" width="2" height="2"/>
	<rect x="12" y="12" width="2" height="2"/>
	<rect x="12" y="20" width="2" height="2"/>
	<rect x="20" y="20" width="2" height="2"/>
	<rect x="24" y="24" width="2" height="2"/>
	<rect x="16" y="24" width="2" height="2"/>
</g>
</svg>
