<?xml version="1.0" encoding="utf-8"?>
<!-- Generator: Adobe Illustrator 22.0.1, SVG Export Plug-In . SVG Version: 6.00 Build 0)  -->
<svg version="1.1" id="Ebene_1" xmlns="http://www.w3.org/2000/svg" xmlns:xlink="http://www.w3.org/1999/xlink" x="0px" y="0px"
	 viewBox="0 0 36 36" style="enable-background:new 0 0 36 36;" xml:space="preserve">
<style type="text/css">
	.st0{fill:#FFFFFF;}
	.st1{clip-path:url(#SVGID_2_);}
	.st2{clip-path:url(#SVGID_4_);enable-background:new    ;}
	.st3{clip-path:url(#SVGID_6_);}
	.st4{clip-path:url(#SVGID_9_);}
	.st5{clip-path:url(#SVGID_13_);}
	.st6{clip-path:url(#SVGID_17_);}
	.st7{clip-path:url(#SVGID_21_);}
	.st8{fill:#A0A0A0;}
	.st9{fill:none;}
	.st10{fill:#FF52A0;}
	.st11{fill:#42ABEE;}
</style>
<g>
	<defs>
		<polygon id="SVGID_1_" points="791,-378 807,-378 807,-404 775,-404 775,-378 		"/>
	</defs>
	<clipPath id="SVGID_2_">
		<use xlink:href="#SVGID_1_"  style="overflow:visible;"/>
	</clipPath>
	<g class="st1">
		<defs>
			<rect id="SVGID_3_" x="-595" y="-414" width="1440" height="1024"/>
		</defs>
		<clipPath id="SVGID_4_">
			<use xlink:href="#SVGID_3_"  style="overflow:visible;"/>
		</clipPath>
	</g>
</g>
<g>
	<defs>
		<rect id="SVGID_23_" x="-816.2" y="-222.8" width="1317" height="936.5"/>
	</defs>
	<clipPath id="SVGID_6_">
		<use xlink:href="#SVGID_23_"  style="overflow:visible;"/>
	</clipPath>
</g>
<g>
	<g>
		<defs>
			<rect id="SVGID_25_" x="-816.2" y="-222.8" width="1317" height="936.5"/>
		</defs>
		<clipPath id="SVGID_9_">
			<use xlink:href="#SVGID_25_"  style="overflow:visible;"/>
		</clipPath>
	</g>
</g>
<g>
	<defs>
		<rect id="SVGID_27_" x="-816.2" y="-222.8" width="1317" height="936.5"/>
	</defs>
	<clipPath id="SVGID_10_">
		<use xlink:href="#SVGID_27_"  style="overflow:visible;"/>
	</clipPath>
</g>
<g>
	<defs>
		<rect id="SVGID_29_" x="-816.2" y="-222.8" width="1317" height="936.5"/>
	</defs>
	<clipPath id="SVGID_13_">
		<use xlink:href="#SVGID_29_"  style="overflow:visible;"/>
	</clipPath>
</g>
<g>
	<defs>
		<rect id="SVGID_31_" x="-816.2" y="-222.8" width="1317" height="936.5"/>
	</defs>
	<clipPath id="SVGID_14_">
		<use xlink:href="#SVGID_31_"  style="overflow:visible;"/>
	</clipPath>
</g>
<g>
	<defs>
		<rect id="SVGID_33_" x="-816.2" y="-222.8" width="1317" height="936.5"/>
	</defs>
	<clipPath id="SVGID_17_">
		<use xlink:href="#SVGID_33_"  style="overflow:visible;"/>
	</clipPath>
</g>
<g>
	<defs>
		<rect id="SVGID_35_" x="-816.2" y="-222.8" width="1317" height="936.5"/>
	</defs>
	<clipPath id="SVGID_18_">
		<use xlink:href="#SVGID_35_"  style="overflow:visible;"/>
	</clipPath>
</g>
<g>
	<polygon class="st10" points="22,22 20,22 20,20 18,20 18,18 16,18 16,16 14,16 14,14 12,14 12,16 12,18 10,18 10,20 8,20 8,22 
		6,22 6,24 8,24 8,26 10,26 10,28 12,28 12,30 12,32 18,32 18,30 20,30 20,28 22,28 22,26 24,26 24,24 22,24 	"/>
</g>
<g>
	<polygon class="st11" points="30,14 28,14 28,12 26,12 26,10 24,10 24,8 22,8 22,10 18,10 18,12 16,12 16,14 18,14 18,16 20,16 
		20,18 22,18 22,20 24,20 24,22 24,24 26,24 26,22 28,22 28,20 30,20 30,18 32,18 32,16 30,16 	"/>
</g>
<rect x="8" y="16" width="2" height="2"/>
<rect x="10" y="14" width="2" height="2"/>
<rect x="12" y="12" width="2" height="2"/>
<rect x="14" y="14" width="2" height="2"/>
<rect x="16" y="16" width="2" height="2"/>
<rect x="18" y="18" width="2" height="2"/>
<rect x="20" y="20" width="2" height="2"/>
<rect x="22" y="22" width="2" height="2"/>
<rect x="2" y="22" width="2" height="2"/>
<rect x="4" y="24" width="2" height="2"/>
<rect x="6" y="26" width="2" height="2"/>
<rect x="8" y="28" width="2" height="2"/>
<rect x="10" y="30" width="2" height="2"/>
<rect x="4" y="20" width="2" height="2"/>
<rect x="6" y="18" width="2" height="2"/>
<rect x="14" y="10" width="2" height="2"/>
<rect x="16" y="8" width="2" height="2"/>
<polygon points="22,8 24,8 24,6 22,6 20,6 18,6 18,8 20,8 "/>
<rect x="24" y="8" width="2" height="2"/>
<rect x="26" y="10" width="2" height="2"/>
<rect x="28" y="12" width="2" height="2"/>
<rect x="28" y="30" width="2" height="2"/>
<rect x="30" y="14" width="2" height="2"/>
<polygon points="32,18 30,18 30,20 28,20 28,22 26,22 26,24 24,24 24,26 22,26 22,28 20,28 20,30 18,30 18,32 16,32 14,32 12,32 
	12,34 14,34 16,34 20,34 20,32 22,32 22,30 24,30 24,28 26,28 26,26 28,26 28,24 30,24 30,22 32,22 32,20 34,20 34,18 34,16 32,16 
	"/>
<rect x="22" y="32" width="6" height="2"/>
<g>
</g>
</svg>
