<?xml version="1.0" encoding="utf-8"?>
<!-- Generator: Adobe Illustrator 22.0.1, SVG Export Plug-In . SVG Version: 6.00 Build 0)  -->
<svg version="1.1" id="Ebene_1" xmlns="http://www.w3.org/2000/svg" xmlns:xlink="http://www.w3.org/1999/xlink" x="0px" y="0px"
	 viewBox="0 0 36 36" style="enable-background:new 0 0 36 36;" xml:space="preserve">
<style type="text/css">
	.st0{fill:#FFFFFF;}
	.st1{clip-path:url(#SVGID_2_);}
	.st2{clip-path:url(#SVGID_4_);enable-background:new    ;}
	.st3{clip-path:url(#SVGID_6_);}
	.st4{clip-path:url(#SVGID_9_);}
	.st5{clip-path:url(#SVGID_13_);}
	.st6{clip-path:url(#SVGID_17_);}
	.st7{clip-path:url(#SVGID_21_);}
	.st8{fill:#A0A0A0;}
	.st9{fill:none;}
	.st10{fill:#FF52A0;}
	.st11{fill:#42ABEE;}
</style>
<g>
	<defs>
		<polygon id="SVGID_1_" points="559,-378 575,-378 575,-404 543,-404 543,-378 		"/>
	</defs>
	<clipPath id="SVGID_2_">
		<use xlink:href="#SVGID_1_"  style="overflow:visible;"/>
	</clipPath>
	<g class="st1">
		<defs>
			<rect id="SVGID_3_" x="-827" y="-414" width="1440" height="1024"/>
		</defs>
		<clipPath id="SVGID_4_">
			<use xlink:href="#SVGID_3_"  style="overflow:visible;"/>
		</clipPath>
	</g>
</g>
<g>
	<defs>
		<rect id="SVGID_23_" x="-1048.2" y="-222.8" width="1317" height="936.5"/>
	</defs>
	<clipPath id="SVGID_6_">
		<use xlink:href="#SVGID_23_"  style="overflow:visible;"/>
	</clipPath>
</g>
<g>
	<g>
		<defs>
			<rect id="SVGID_25_" x="-1048.2" y="-222.8" width="1317" height="936.5"/>
		</defs>
		<clipPath id="SVGID_9_">
			<use xlink:href="#SVGID_25_"  style="overflow:visible;"/>
		</clipPath>
	</g>
</g>
<g>
	<defs>
		<rect id="SVGID_27_" x="-1048.2" y="-222.8" width="1317" height="936.5"/>
	</defs>
	<clipPath id="SVGID_10_">
		<use xlink:href="#SVGID_27_"  style="overflow:visible;"/>
	</clipPath>
</g>
<g>
	<defs>
		<rect id="SVGID_29_" x="-1048.2" y="-222.8" width="1317" height="936.5"/>
	</defs>
	<clipPath id="SVGID_13_">
		<use xlink:href="#SVGID_29_"  style="overflow:visible;"/>
	</clipPath>
</g>
<g>
	<defs>
		<rect id="SVGID_31_" x="-1048.2" y="-222.8" width="1317" height="936.5"/>
	</defs>
	<clipPath id="SVGID_14_">
		<use xlink:href="#SVGID_31_"  style="overflow:visible;"/>
	</clipPath>
</g>
<g>
	<defs>
		<rect id="SVGID_33_" x="-1048.2" y="-222.8" width="1317" height="936.5"/>
	</defs>
	<clipPath id="SVGID_17_">
		<use xlink:href="#SVGID_33_"  style="overflow:visible;"/>
	</clipPath>
</g>
<g>
	<defs>
		<rect id="SVGID_35_" x="-1048.2" y="-222.8" width="1317" height="936.5"/>
	</defs>
	<clipPath id="SVGID_18_">
		<use xlink:href="#SVGID_35_"  style="overflow:visible;"/>
	</clipPath>
</g>
<g>
	<rect x="20" y="26" class="st10" width="2" height="2"/>
	<rect x="22" y="24" class="st10" width="2" height="2"/>
	<rect x="22" y="18" class="st10" width="2" height="2"/>
	<rect x="20" y="16" class="st10" width="2" height="2"/>
	<rect x="24" y="20" class="st10" width="2" height="4"/>
	<rect x="12" y="30" class="st10" width="2" height="2"/>
	<rect x="10" y="32" class="st10" width="2" height="2"/>
</g>
<g>
	<rect x="12" y="26" class="st11" width="2" height="2"/>
	<rect x="10" y="24" class="st11" width="2" height="2"/>
	<rect x="8" y="20" class="st11" width="2" height="4"/>
	<rect x="10" y="18" class="st11" width="2" height="2"/>
	<rect x="12" y="16" class="st11" width="2" height="2"/>
	<rect x="20" y="30" class="st11" width="2" height="2"/>
	<rect x="22" y="32" class="st11" width="2" height="2"/>
</g>
<rect x="8" y="10" width="4" height="2"/>
<rect x="6" y="12" width="2" height="2"/>
<rect x="4" y="14" width="2" height="2"/>
<rect x="2" y="16" width="2" height="10"/>
<rect x="4" y="26" width="4" height="2"/>
<polygon points="8,30 16,30 16,32 18,32 18,30 26,30 26,28 8,28 "/>
<rect x="26" y="26" width="4" height="2"/>
<rect x="28" y="14" width="2" height="2"/>
<rect x="30" y="16" width="2" height="10"/>
<rect x="26" y="12" width="2" height="2"/>
<rect x="22" y="10" width="4" height="2"/>
<rect x="12" y="8" width="2" height="2"/>
<polygon points="18,8 20,8 20,6 20,4 16,4 16,6 18,6 "/>
<rect x="14" y="6" width="2" height="2"/>
<rect x="20" y="8" width="2" height="2"/>
<rect x="20" y="2" width="2" height="2"/>
<g>
</g>
</svg>
