<?xml version="1.0" encoding="utf-8"?>
<!-- Generator: Adobe Illustrator 22.0.1, SVG Export Plug-In . SVG Version: 6.00 Build 0)  -->
<svg version="1.1" id="Ebene_1" xmlns="http://www.w3.org/2000/svg" xmlns:xlink="http://www.w3.org/1999/xlink" x="0px" y="0px"
	 viewBox="0 0 36 36" style="enable-background:new 0 0 36 36;" xml:space="preserve">
<style type="text/css">
	.st0{fill:#FFFFFF;}
	.st1{clip-path:url(#SVGID_2_);}
	.st2{clip-path:url(#SVGID_4_);enable-background:new    ;}
	.st3{clip-path:url(#SVGID_6_);}
	.st4{clip-path:url(#SVGID_9_);}
	.st5{clip-path:url(#SVGID_13_);}
	.st6{clip-path:url(#SVGID_17_);}
	.st7{clip-path:url(#SVGID_21_);}
	.st8{fill:#A0A0A0;}
	.st9{fill:none;}
	.st10{fill:#FF52A0;}
	.st11{fill:#42ABEE;}
</style>
<g>
	<defs>
		<polygon id="SVGID_1_" points="719,-730 735,-730 735,-756 703,-756 703,-730 		"/>
	</defs>
	<clipPath id="SVGID_2_">
		<use xlink:href="#SVGID_1_"  style="overflow:visible;"/>
	</clipPath>
	<g class="st1">
		<defs>
			<rect id="SVGID_3_" x="-667" y="-766" width="1440" height="1024"/>
		</defs>
		<clipPath id="SVGID_4_">
			<use xlink:href="#SVGID_3_"  style="overflow:visible;"/>
		</clipPath>
	</g>
</g>
<g>
	<defs>
		<rect id="SVGID_23_" x="-888.2" y="-574.8" width="1317" height="936.5"/>
	</defs>
	<clipPath id="SVGID_6_">
		<use xlink:href="#SVGID_23_"  style="overflow:visible;"/>
	</clipPath>
</g>
<g>
	<g>
		<defs>
			<rect id="SVGID_25_" x="-888.2" y="-574.8" width="1317" height="936.5"/>
		</defs>
		<clipPath id="SVGID_9_">
			<use xlink:href="#SVGID_25_"  style="overflow:visible;"/>
		</clipPath>
	</g>
</g>
<g>
	<defs>
		<rect id="SVGID_27_" x="-888.2" y="-574.8" width="1317" height="936.5"/>
	</defs>
	<clipPath id="SVGID_10_">
		<use xlink:href="#SVGID_27_"  style="overflow:visible;"/>
	</clipPath>
</g>
<g>
	<defs>
		<rect id="SVGID_29_" x="-888.2" y="-574.8" width="1317" height="936.5"/>
	</defs>
	<clipPath id="SVGID_13_">
		<use xlink:href="#SVGID_29_"  style="overflow:visible;"/>
	</clipPath>
</g>
<g>
	<defs>
		<rect id="SVGID_31_" x="-888.2" y="-574.8" width="1317" height="936.5"/>
	</defs>
	<clipPath id="SVGID_14_">
		<use xlink:href="#SVGID_31_"  style="overflow:visible;"/>
	</clipPath>
</g>
<g>
	<defs>
		<rect id="SVGID_33_" x="-888.2" y="-574.8" width="1317" height="936.5"/>
	</defs>
	<clipPath id="SVGID_17_">
		<use xlink:href="#SVGID_33_"  style="overflow:visible;"/>
	</clipPath>
</g>
<g>
	<defs>
		<rect id="SVGID_35_" x="-888.2" y="-574.8" width="1317" height="936.5"/>
	</defs>
	<clipPath id="SVGID_18_">
		<use xlink:href="#SVGID_35_"  style="overflow:visible;"/>
	</clipPath>
</g>
<rect x="14" y="16" transform="matrix(-1 -1.224647e-16 1.224647e-16 -1 30 34)" class="st9" width="2" height="2"/>
<rect x="18" y="18" transform="matrix(-1 -1.224647e-16 1.224647e-16 -1 38 38)" class="st9" width="2" height="2"/>
<rect x="16" y="20" transform="matrix(-1 -1.224647e-16 1.224647e-16 -1 34 42)" class="st9" width="2" height="2"/>
<rect x="14" y="12" transform="matrix(-1 -1.224647e-16 1.224647e-16 -1 30 26)" class="st9" width="2" height="2"/>
<rect x="14" y="14" transform="matrix(-1 -1.224647e-16 1.224647e-16 -1 30 30)" class="st9" width="2" height="2"/>
<rect x="16" y="12" transform="matrix(-1 -1.224647e-16 1.224647e-16 -1 34 26)" class="st9" width="2" height="2"/>
<rect x="18" y="12" transform="matrix(-1 -1.224647e-16 1.224647e-16 -1 38 26)" class="st9" width="2" height="2"/>
<rect x="20" y="12" transform="matrix(-1 -1.224647e-16 1.224647e-16 -1 42 26)" class="st9" width="2" height="2"/>
<rect x="20" y="14" transform="matrix(-1 -1.224647e-16 1.224647e-16 -1 42 30)" class="st9" width="2" height="2"/>
<rect x="20" y="16" transform="matrix(-1 -1.224647e-16 1.224647e-16 -1 42 34)" class="st9" width="2" height="2"/>
<rect x="18" y="16" transform="matrix(-1 -1.224647e-16 1.224647e-16 -1 38 34)" class="st9" width="2" height="2"/>
<rect x="20" y="18" transform="matrix(-1 -1.224647e-16 1.224647e-16 -1 42 38)" class="st9" width="2" height="2"/>
<rect x="14" y="18" transform="matrix(-1 -1.224647e-16 1.224647e-16 -1 30 38)" class="st9" width="2" height="2"/>
<rect x="18" y="20" transform="matrix(-1 -1.224647e-16 1.224647e-16 -1 38 42)" class="st9" width="2" height="2"/>
<rect x="20" y="20" transform="matrix(-1 -1.224647e-16 1.224647e-16 -1 42 42)" class="st9" width="2" height="2"/>
<rect x="14" y="20" transform="matrix(-1 -1.224647e-16 1.224647e-16 -1 30 42)" class="st9" width="2" height="2"/>
<g>
	<polygon class="st10" points="2,12 2,14 2,16 4,16 6,16 6,14 6,12 4,12 	"/>
	<polygon class="st10" points="26,28 26,30 26,32 28,32 30,32 30,30 30,28 28,28 	"/>
</g>
<g>
	<polygon class="st11" points="30,12 30,14 30,16 32,16 34,16 34,14 34,12 32,12 	"/>
	<polygon class="st11" points="10,32 10,30 10,28 8,28 6,28 6,30 6,32 8,32 	"/>
</g>
<polygon points="16,14 16,16 16,18 16,20 18,20 18,18 18,16 20,16 20,14 18,14 "/>
<path d="M30,16h-2h-2h-2v-2v-2v-2h-2V8V6h-2v2v2h-2h-2V8V6h-2v2v2h-2v2v2v2h-2H8H6H4H2v2h2h2h2h2h2v2v2h-2H8v2v2H6v2h2h2v-2v-2h2h2
	h2h2h2h2h4v2v2h2h2v-2h-2v-2v-2h-4v-2v-2h2h2h2h2h2v-2h-2H30z M22,14v2v2v2v2h-2h-2h-2h-2v-2v-2v-2v-2v-2h2h2h2h2V14z"/>
<polygon points="20,6 20,4 18,4 16,4 16,6 18,6 "/>
<g>
</g>
<g>
</g>
</svg>
