<?xml version="1.0" encoding="utf-8"?>
<!-- Generator: Adobe Illustrator 22.0.1, SVG Export Plug-In . SVG Version: 6.00 Build 0)  -->
<svg version="1.1" id="Ebene_1" xmlns="http://www.w3.org/2000/svg" xmlns:xlink="http://www.w3.org/1999/xlink" x="0px" y="0px"
	 viewBox="0 0 36 36" style="enable-background:new 0 0 36 36;" xml:space="preserve">
<style type="text/css">
	.st0{fill:#FFFFFF;}
	.st1{clip-path:url(#SVGID_2_);}
	.st2{clip-path:url(#SVGID_4_);enable-background:new    ;}
	.st3{clip-path:url(#SVGID_6_);}
	.st4{clip-path:url(#SVGID_9_);}
	.st5{clip-path:url(#SVGID_13_);}
	.st6{clip-path:url(#SVGID_17_);}
	.st7{clip-path:url(#SVGID_21_);}
	.st8{fill:#A0A0A0;}
	.st9{fill:none;}
	.st10{fill:#FF52A0;}
	.st11{fill:#42ABEE;}
</style>
<g>
	<defs>
		<polygon id="SVGID_1_" points="735,-806 751,-806 751,-832 719,-832 719,-806 		"/>
	</defs>
	<clipPath id="SVGID_2_">
		<use xlink:href="#SVGID_1_"  style="overflow:visible;"/>
	</clipPath>
	<g class="st1">
		<defs>
			<rect id="SVGID_3_" x="-651" y="-842" width="1440" height="1024"/>
		</defs>
		<clipPath id="SVGID_4_">
			<use xlink:href="#SVGID_3_"  style="overflow:visible;"/>
		</clipPath>
	</g>
</g>
<g>
	<defs>
		<rect id="SVGID_23_" x="-872.2" y="-650.8" width="1317" height="936.5"/>
	</defs>
	<clipPath id="SVGID_6_">
		<use xlink:href="#SVGID_23_"  style="overflow:visible;"/>
	</clipPath>
</g>
<g>
	<g>
		<defs>
			<rect id="SVGID_25_" x="-872.2" y="-650.8" width="1317" height="936.5"/>
		</defs>
		<clipPath id="SVGID_9_">
			<use xlink:href="#SVGID_25_"  style="overflow:visible;"/>
		</clipPath>
	</g>
</g>
<g>
	<defs>
		<rect id="SVGID_27_" x="-872.2" y="-650.8" width="1317" height="936.5"/>
	</defs>
	<clipPath id="SVGID_10_">
		<use xlink:href="#SVGID_27_"  style="overflow:visible;"/>
	</clipPath>
</g>
<g>
	<defs>
		<rect id="SVGID_29_" x="-872.2" y="-650.8" width="1317" height="936.5"/>
	</defs>
	<clipPath id="SVGID_13_">
		<use xlink:href="#SVGID_29_"  style="overflow:visible;"/>
	</clipPath>
</g>
<g>
	<defs>
		<rect id="SVGID_31_" x="-872.2" y="-650.8" width="1317" height="936.5"/>
	</defs>
	<clipPath id="SVGID_14_">
		<use xlink:href="#SVGID_31_"  style="overflow:visible;"/>
	</clipPath>
</g>
<g>
	<defs>
		<rect id="SVGID_33_" x="-872.2" y="-650.8" width="1317" height="936.5"/>
	</defs>
	<clipPath id="SVGID_17_">
		<use xlink:href="#SVGID_33_"  style="overflow:visible;"/>
	</clipPath>
</g>
<g>
	<defs>
		<rect id="SVGID_35_" x="-872.2" y="-650.8" width="1317" height="936.5"/>
	</defs>
	<clipPath id="SVGID_18_">
		<use xlink:href="#SVGID_35_"  style="overflow:visible;"/>
	</clipPath>
</g>
<g>
	<polygon class="st10" points="16,26 16,28 16,30 18,30 20,30 20,28 20,26 18,26 	"/>
</g>
<g>
</g>
<g>
	<polygon points="14,14 14,12 12,12 12,14 12,16 14,16 	"/>
	<polygon points="22,14 22,16 24,16 24,14 24,12 22,12 	"/>
	<polygon points="18,4 20,4 22,4 22,2 20,2 18,2 16,2 14,2 14,4 16,4 	"/>
	<polygon points="24,6 26,6 26,4 24,4 22,4 22,6 	"/>
	<rect x="26" y="6" width="2" height="2"/>
	<rect x="28" y="8" width="2" height="2"/>
	<polygon points="30,14 32,14 32,12 32,10 30,10 30,12 	"/>
	<polygon points="32,16 32,18 32,20 32,22 34,22 34,20 34,18 34,16 34,14 32,14 	"/>
	<polygon points="30,24 30,26 32,26 32,24 32,22 30,22 	"/>
	<rect x="6" y="8" width="2" height="2"/>
	<rect x="8" y="6" width="2" height="2"/>
	<polygon points="14,6 14,4 12,4 10,4 10,6 12,6 	"/>
	<polygon points="18,32 16,32 14,32 14,34 16,34 18,34 20,34 22,34 22,32 20,32 	"/>
	<polygon points="12,30 10,30 10,32 12,32 14,32 14,30 	"/>
	<rect x="8" y="28" width="2" height="2"/>
	<rect x="6" y="26" width="2" height="2"/>
	<polygon points="6,22 4,22 4,24 4,26 6,26 6,24 	"/>
	<polygon points="4,18 4,16 4,14 2,14 2,16 2,18 2,20 2,22 4,22 4,20 	"/>
	<polygon points="6,12 6,10 4,10 4,12 4,14 6,14 	"/>
	<rect x="28" y="26" width="2" height="2"/>
	<rect x="26" y="28" width="2" height="2"/>
	<polygon points="22,30 22,32 24,32 26,32 26,30 24,30 	"/>
	<polygon points="20,24 18,24 16,24 14,24 12,24 12,26 14,26 14,28 16,28 16,26 18,26 20,26 20,28 22,28 22,26 24,26 24,24 22,24 	
		"/>
</g>
<g>
</g>
</svg>
