<?xml version="1.0" encoding="utf-8"?>
<!-- Generator: Adobe Illustrator 22.0.1, SVG Export Plug-In . SVG Version: 6.00 Build 0)  -->
<svg version="1.1" id="Ebene_1" xmlns="http://www.w3.org/2000/svg" xmlns:xlink="http://www.w3.org/1999/xlink" x="0px" y="0px"
	 viewBox="0 0 36 36" style="enable-background:new 0 0 36 36;" xml:space="preserve">
<style type="text/css">
	.st0{fill:#FFFFFF;}
	.st1{clip-path:url(#SVGID_2_);}
	.st2{clip-path:url(#SVGID_4_);enable-background:new    ;}
	.st3{clip-path:url(#SVGID_6_);}
	.st4{clip-path:url(#SVGID_9_);}
	.st5{clip-path:url(#SVGID_13_);}
	.st6{clip-path:url(#SVGID_17_);}
	.st7{clip-path:url(#SVGID_21_);}
	.st8{fill:#A0A0A0;}
	.st9{fill:none;}
	.st10{fill:#FF52A0;}
	.st11{fill:#42ABEE;}
</style>
<g>
	<defs>
		<polygon id="SVGID_1_" points="719,-378 735,-378 735,-404 703,-404 703,-378 		"/>
	</defs>
	<clipPath id="SVGID_2_">
		<use xlink:href="#SVGID_1_"  style="overflow:visible;"/>
	</clipPath>
	<g class="st1">
		<defs>
			<rect id="SVGID_3_" x="-667" y="-414" width="1440" height="1024"/>
		</defs>
		<clipPath id="SVGID_4_">
			<use xlink:href="#SVGID_3_"  style="overflow:visible;"/>
		</clipPath>
	</g>
</g>
<g>
	<defs>
		<rect id="SVGID_23_" x="-888.2" y="-222.8" width="1317" height="936.5"/>
	</defs>
	<clipPath id="SVGID_6_">
		<use xlink:href="#SVGID_23_"  style="overflow:visible;"/>
	</clipPath>
</g>
<g>
	<g>
		<defs>
			<rect id="SVGID_25_" x="-888.2" y="-222.8" width="1317" height="936.5"/>
		</defs>
		<clipPath id="SVGID_9_">
			<use xlink:href="#SVGID_25_"  style="overflow:visible;"/>
		</clipPath>
	</g>
</g>
<g>
	<defs>
		<rect id="SVGID_27_" x="-888.2" y="-222.8" width="1317" height="936.5"/>
	</defs>
	<clipPath id="SVGID_10_">
		<use xlink:href="#SVGID_27_"  style="overflow:visible;"/>
	</clipPath>
</g>
<g>
	<defs>
		<rect id="SVGID_29_" x="-888.2" y="-222.8" width="1317" height="936.5"/>
	</defs>
	<clipPath id="SVGID_13_">
		<use xlink:href="#SVGID_29_"  style="overflow:visible;"/>
	</clipPath>
</g>
<g>
	<defs>
		<rect id="SVGID_31_" x="-888.2" y="-222.8" width="1317" height="936.5"/>
	</defs>
	<clipPath id="SVGID_14_">
		<use xlink:href="#SVGID_31_"  style="overflow:visible;"/>
	</clipPath>
</g>
<g>
	<defs>
		<rect id="SVGID_33_" x="-888.2" y="-222.8" width="1317" height="936.5"/>
	</defs>
	<clipPath id="SVGID_17_">
		<use xlink:href="#SVGID_33_"  style="overflow:visible;"/>
	</clipPath>
</g>
<g>
	<defs>
		<rect id="SVGID_35_" x="-888.2" y="-222.8" width="1317" height="936.5"/>
	</defs>
	<clipPath id="SVGID_18_">
		<use xlink:href="#SVGID_35_"  style="overflow:visible;"/>
	</clipPath>
</g>
<g>
	<rect x="28" y="16" class="st10" width="6" height="2"/>
</g>
<g>
	<polygon class="st11" points="28,10 28,12 30,12 32,12 32,10 30,10 	"/>
	<rect x="32" y="8" class="st11" width="2" height="2"/>
	<polygon class="st11" points="30,22 28,22 28,24 30,24 32,24 32,22 	"/>
	<rect x="32" y="24" class="st11" width="2" height="2"/>
</g>
<polygon points="22,10 22,8 20,8 18,8 18,10 20,10 "/>
<polygon points="10,12 12,12 12,20 10,20 8,20 6,20 6,22 8,22 10,22 10,24 10,26 12,26 12,24 12,22 14,22 16,22 18,22 18,20 16,20 
	14,20 14,12 16,12 18,12 18,10 16,10 14,10 12,10 10,10 8,10 6,10 6,12 8,12 "/>
<rect x="4" y="12" width="2" height="2"/>
<rect x="4" y="18" width="2" height="2"/>
<rect x="2" y="14" width="2" height="4"/>
<polygon points="20,22 18,22 18,24 20,24 22,24 22,22 "/>
<polygon points="12,30 12,32 10,32 10,30 8,30 8,32 8,34 14,34 14,32 14,30 14,28 14,26 12,26 12,28 "/>
<polygon points="6,22 4,22 4,24 4,26 6,26 6,24 "/>
<rect x="6" y="26" width="2" height="4"/>
<polygon points="24,24 22,24 22,26 24,26 24,28 26,28 26,4 24,4 24,6 22,6 22,8 24,8 "/>
<g>
</g>
</svg>
