<?xml version="1.0" encoding="utf-8"?>
<!-- Generator: Adobe Illustrator 22.0.1, SVG Export Plug-In . SVG Version: 6.00 Build 0)  -->
<svg version="1.1" id="Ebene_1" xmlns="http://www.w3.org/2000/svg" xmlns:xlink="http://www.w3.org/1999/xlink" x="0px" y="0px"
	 viewBox="0 0 366 100" style="enable-background:new 0 0 366 100;" xml:space="preserve">
<style type="text/css">
	.st0{clip-path:url(#SVGID_2_);}
	.st1{clip-path:url(#SVGID_6_);}
	.st2{clip-path:url(#SVGID_10_);}
	.st3{clip-path:url(#SVGID_14_);}
	.st4{clip-path:url(#SVGID_18_);}
	.st5{clip-path:url(#SVGID_22_);}
	.st6{clip-path:url(#SVGID_26_);}
	.st7{clip-path:url(#SVGID_30_);}
	.st8{clip-path:url(#SVGID_34_);}
	.st9{clip-path:url(#SVGID_38_);}
	.st10{fill:#42ABEE;}
</style>
<g>
	<defs>
		<path id="SVGID_1_" d="M41.9,63v-1.6h1.6h1.6v-1.6v-1.6v-1.6v-1.6h1.6h1.6v-1.6v-1.6v-1.6v-1.6h-1.6h-1.6v-1.6v-1.6h-1.6h-1.6
			v-1.6v-1.6h-1.6h-1.6h-1.6h-1.6H34h-1.6v1.6v1.6v1.6v1.6h-1.6h-1.6v1.6v1.6h-1.6h-1.6v1.6h0v1.6h0v1.6v1.6h1.6h1.6v1.6v1.6h1.6
			h1.6V63v1.6H34h1.6h1.6h1.6h1.6h1.6V63z M35.6,48.8h1.6h1.6h1.6h1.6v1.6v1.6v1.6v1.6h-1.6h-1.6h-1.6h-1.6v-1.6v-1.6v-1.6V48.8z"/>
	</defs>
	<use xlink:href="#SVGID_1_"  style="overflow:visible;fill-rule:evenodd;clip-rule:evenodd;"/>
	<clipPath id="SVGID_2_">
		<use xlink:href="#SVGID_1_"  style="overflow:visible;"/>
	</clipPath>
	<g class="st0">
		<defs>
			<rect id="SVGID_3_" x="-0.8" y="0" width="426" height="122"/>
		</defs>
		<use xlink:href="#SVGID_3_"  style="overflow:visible;"/>
		<clipPath id="SVGID_4_">
			<use xlink:href="#SVGID_3_"  style="overflow:visible;"/>
		</clipPath>
	</g>
</g>
<g>
	<defs>
		<path id="SVGID_5_" d="M67.3,53.5v-1.6v-1.6v-1.6h1.6h1.6H72h1.6v1.6v1.6v1.6v1.6H72h-1.6h-1.6h-1.6V53.5z M41.9,14.1v1.6v1.6
			h-1.6h-1.6h-1.6h-1.6v1.6v1.6H34h-1.6V22v1.6h-1.6h-1.6v1.6v1.6h-1.6h-1.6h-1.6h-1.6v1.6v1.6h-1.6v-1.6v-1.6v-1.6v-1.6h-1.6h-1.6
			h-1.6v1.6v1.6H15h-1.6v1.6v1.6h-1.6h-1.6v1.6V33v1.6v1.6v1.6h1.6h1.6H15v-1.6v-1.6V33h1.6h1.6h1.6v1.6v1.6h-1.6h-1.6v1.6v1.6H15
			h-1.6v1.6v1.6v1.6v1.6H15h1.6h1.6v-1.6v-1.6h1.6h1.6v-1.6v-1.6h1.6h1.6v-1.6v-1.6h1.6v-1.6h1.6h1.6V33h1.6h1.6H34h1.6v-1.6v-1.6
			h1.6h1.6v-1.6v-1.6h1.6h1.6h1.6h1.6h1.6h1.6v1.6v1.6v1.6V33h1.6h1.6H53h1.6v1.6v1.6h1.6h1.6h1.6h1.6v1.6v1.6h1.6h1.6v1.6v1.6v1.6
			v1.6h-1.6h-1.6v1.6v1.6h-1.6h-1.6v1.6v1.6v1.6v1.6v1.6v1.6h1.6h1.6v1.6v1.6h1.6h1.6V63v1.6h1.6h1.6h1.6h1.6H72h1.6h1.6h1.6V63
			v-1.6h1.6h1.6v-1.6v-1.6v-1.6v-1.6v-1.6v-1.6h1.6h1.6h1.6h1.6v1.6v1.6h1.6h1.6v1.6v1.6v1.6v1.6V63v1.6H91h1.6V63v-1.6h1.6h1.6
			v-1.6v-1.6v-1.6v-1.6v-1.6v-1.6h1.6H99h1.6h1.6v-1.6v-1.6v-1.6v-1.6h-1.6H99v-1.6v-1.6h-1.6v-1.6v-1.6v-1.6v-1.6h-1.6h-1.6v1.6
			v1.6v1.6v1.6h-1.6v1.6v1.6H91h-1.6v-1.6v-1.6v-1.6v-1.6v-1.6v-1.6v-1.6V33h-1.6h-1.6v-1.6v-1.6h-1.6h-1.6v-1.6v-1.6h-1.6h-1.6
			v-1.6v-1.6h-1.6h-1.6V22v-1.6h-1.6h-1.6v-1.6v-1.6H72h-1.6h-1.6h-1.6v-1.6v-1.6H41.9z"/>
	</defs>
	<use xlink:href="#SVGID_5_"  style="overflow:visible;fill-rule:evenodd;clip-rule:evenodd;"/>
	<clipPath id="SVGID_6_">
		<use xlink:href="#SVGID_5_"  style="overflow:visible;"/>
	</clipPath>
	<g class="st1">
		<defs>
			<rect id="SVGID_7_" x="-0.8" y="0" width="426" height="122"/>
		</defs>
		<use xlink:href="#SVGID_7_"  style="overflow:visible;"/>
		<clipPath id="SVGID_8_">
			<use xlink:href="#SVGID_7_"  style="overflow:visible;"/>
		</clipPath>
	</g>
</g>
<g>
	<defs>
		<polygon id="SVGID_9_" points="86.3,64.6 86.3,66.1 86.3,67.7 86.3,69.3 86.3,70.9 84.7,70.9 83.1,70.9 83.1,72.4 83.1,74 
			81.5,74 79.9,74 79.9,75.6 79.9,77.2 78.4,77.2 76.8,77.2 76.8,78.8 76.8,80.3 75.2,80.3 73.6,80.3 73.6,81.9 73.6,83.5 72,83.5 
			70.4,83.5 70.4,85.1 70.4,86.6 72,86.6 73.6,86.6 75.2,86.6 76.8,86.6 76.8,85.1 76.8,83.5 78.4,83.5 79.9,83.5 79.9,81.9 
			79.9,80.3 81.5,80.3 83.1,80.3 83.1,78.8 83.1,77.2 84.7,77.2 86.3,77.2 86.3,75.6 86.3,74 87.9,74 89.4,74 89.4,72.4 89.4,70.9 
			89.4,69.3 89.4,67.7 89.4,66.1 89.4,64.6 87.9,64.6 		"/>
	</defs>
	<use xlink:href="#SVGID_9_"  style="overflow:visible;fill-rule:evenodd;clip-rule:evenodd;"/>
	<clipPath id="SVGID_10_">
		<use xlink:href="#SVGID_9_"  style="overflow:visible;"/>
	</clipPath>
	<g class="st2">
		<defs>
			<rect id="SVGID_11_" x="-0.8" y="0" width="426" height="122"/>
		</defs>
		<use xlink:href="#SVGID_11_"  style="overflow:visible;"/>
		<clipPath id="SVGID_12_">
			<use xlink:href="#SVGID_11_"  style="overflow:visible;"/>
		</clipPath>
	</g>
</g>
<g>
	<defs>
		<polygon id="SVGID_13_" points="62.5,89.8 60.9,89.8 59.3,89.8 57.8,89.8 56.2,89.8 54.6,89.8 53,89.8 51.4,89.8 49.8,89.8 
			48.3,89.8 46.7,89.8 45.1,89.8 43.5,89.8 41.9,89.8 41.9,91.4 41.9,92.9 43.5,92.9 45.1,92.9 46.7,92.9 48.3,92.9 49.8,92.9 
			51.4,92.9 53,92.9 54.6,92.9 56.2,92.9 57.8,92.9 59.3,92.9 60.9,92.9 62.5,92.9 64.1,92.9 64.1,91.4 64.1,89.8 		"/>
	</defs>
	<use xlink:href="#SVGID_13_"  style="overflow:visible;fill-rule:evenodd;clip-rule:evenodd;"/>
	<clipPath id="SVGID_14_">
		<use xlink:href="#SVGID_13_"  style="overflow:visible;"/>
	</clipPath>
	<g class="st3">
		<defs>
			<rect id="SVGID_15_" x="-0.8" y="0" width="426" height="122"/>
		</defs>
		<use xlink:href="#SVGID_15_"  style="overflow:visible;"/>
		<clipPath id="SVGID_16_">
			<use xlink:href="#SVGID_15_"  style="overflow:visible;"/>
		</clipPath>
	</g>
</g>
<g>
	<defs>
		<polygon id="SVGID_17_" points="35.6,86.6 35.6,88.2 35.6,89.8 37.2,89.8 38.7,89.8 38.7,88.2 38.7,86.6 37.2,86.6 		"/>
	</defs>
	<use xlink:href="#SVGID_17_"  style="overflow:visible;fill-rule:evenodd;clip-rule:evenodd;"/>
	<clipPath id="SVGID_18_">
		<use xlink:href="#SVGID_17_"  style="overflow:visible;"/>
	</clipPath>
	<g class="st4">
		<defs>
			<rect id="SVGID_19_" x="-0.8" y="0" width="426" height="122"/>
		</defs>
		<use xlink:href="#SVGID_19_"  style="overflow:visible;"/>
		<clipPath id="SVGID_20_">
			<use xlink:href="#SVGID_19_"  style="overflow:visible;"/>
		</clipPath>
	</g>
</g>
<g>
	<defs>
		<polygon id="SVGID_21_" points="35.6,83.5 34,83.5 32.4,83.5 32.4,85.1 32.4,86.6 34,86.6 35.6,86.6 35.6,85.1 		"/>
	</defs>
	<use xlink:href="#SVGID_21_"  style="overflow:visible;fill-rule:evenodd;clip-rule:evenodd;"/>
	<clipPath id="SVGID_22_">
		<use xlink:href="#SVGID_21_"  style="overflow:visible;"/>
	</clipPath>
	<g class="st5">
		<defs>
			<rect id="SVGID_23_" x="-0.8" y="0" width="426" height="122"/>
		</defs>
		<use xlink:href="#SVGID_23_"  style="overflow:visible;"/>
		<clipPath id="SVGID_24_">
			<use xlink:href="#SVGID_23_"  style="overflow:visible;"/>
		</clipPath>
	</g>
</g>
<g>
	<defs>
		<polygon id="SVGID_25_" points="26.1,80.3 26.1,78.8 26.1,77.2 24.5,77.2 22.9,77.2 22.9,75.6 22.9,74 21.3,74 19.7,74 19.7,75.6 
			19.7,77.2 19.7,78.8 19.7,80.3 21.3,80.3 22.9,80.3 22.9,81.9 22.9,83.5 24.5,83.5 26.1,83.5 27.7,83.5 29.2,83.5 29.2,81.9 
			29.2,80.3 27.7,80.3 		"/>
	</defs>
	<use xlink:href="#SVGID_25_"  style="overflow:visible;fill-rule:evenodd;clip-rule:evenodd;"/>
	<clipPath id="SVGID_26_">
		<use xlink:href="#SVGID_25_"  style="overflow:visible;"/>
	</clipPath>
	<g class="st6">
		<defs>
			<rect id="SVGID_27_" x="-0.8" y="0" width="426" height="122"/>
		</defs>
		<use xlink:href="#SVGID_27_"  style="overflow:visible;"/>
		<clipPath id="SVGID_28_">
			<use xlink:href="#SVGID_27_"  style="overflow:visible;"/>
		</clipPath>
	</g>
</g>
<g>
	<defs>
		<polygon id="SVGID_29_" points="19.7,66.1 19.7,64.6 19.7,63 19.7,61.4 18.1,61.4 16.6,61.4 16.6,63 16.6,64.6 16.6,66.1 
			16.6,67.7 18.1,67.7 19.7,67.7 		"/>
	</defs>
	<use xlink:href="#SVGID_29_"  style="overflow:visible;fill-rule:evenodd;clip-rule:evenodd;"/>
	<clipPath id="SVGID_30_">
		<use xlink:href="#SVGID_29_"  style="overflow:visible;"/>
	</clipPath>
	<g class="st7">
		<defs>
			<rect id="SVGID_31_" x="-0.8" y="0" width="426" height="122"/>
		</defs>
		<use xlink:href="#SVGID_31_"  style="overflow:visible;"/>
		<clipPath id="SVGID_32_">
			<use xlink:href="#SVGID_31_"  style="overflow:visible;"/>
		</clipPath>
	</g>
</g>
<g>
	<defs>
		<polygon id="SVGID_33_" points="48.3,75.6 48.3,77.2 49.8,77.2 51.4,77.2 53,77.2 54.6,77.2 56.2,77.2 57.8,77.2 57.8,75.6 
			57.8,74 56.2,74 54.6,74 53,74 51.4,74 49.8,74 48.3,74 		"/>
	</defs>
	<use xlink:href="#SVGID_33_"  style="overflow:visible;fill-rule:evenodd;clip-rule:evenodd;"/>
	<clipPath id="SVGID_34_">
		<use xlink:href="#SVGID_33_"  style="overflow:visible;"/>
	</clipPath>
	<g class="st8">
		<defs>
			<rect id="SVGID_35_" x="-0.8" y="0" width="426" height="122"/>
		</defs>
		<use xlink:href="#SVGID_35_"  style="overflow:visible;"/>
		<clipPath id="SVGID_36_">
			<use xlink:href="#SVGID_35_"  style="overflow:visible;"/>
		</clipPath>
	</g>
</g>
<g>
	<defs>
		<polygon id="SVGID_37_" points="60.9,74 60.9,72.4 60.9,70.9 59.3,70.9 57.8,70.9 57.8,72.4 57.8,74 59.3,74 		"/>
	</defs>
	<use xlink:href="#SVGID_37_"  style="overflow:visible;fill-rule:evenodd;clip-rule:evenodd;"/>
	<clipPath id="SVGID_38_">
		<use xlink:href="#SVGID_37_"  style="overflow:visible;"/>
	</clipPath>
	<g class="st9">
		<defs>
			<rect id="SVGID_39_" x="-0.8" y="0" width="426" height="122"/>
		</defs>
		<use xlink:href="#SVGID_39_"  style="overflow:visible;"/>
		<clipPath id="SVGID_40_">
			<use xlink:href="#SVGID_39_"  style="overflow:visible;"/>
		</clipPath>
	</g>
</g>
<g>
	<g>
		<path class="st10" d="M130.7,58.3h3c0.1,0.9,0.5,1.7,1.1,2.1c0.6,0.5,1.4,0.7,2.4,0.7c0.4,0,0.8,0,1.2-0.1
			c0.4-0.1,0.8-0.2,1.1-0.3c0.3-0.2,0.6-0.4,0.8-0.7s0.3-0.7,0.3-1.2c0-0.4-0.1-0.7-0.4-1c-0.3-0.3-0.7-0.5-1.2-0.6
			c-0.7-0.2-1.4-0.5-2.1-0.6c-0.6-0.2-1.3-0.3-2-0.5c-0.5-0.1-1.1-0.3-1.5-0.6c-0.5-0.3-0.9-0.6-1.2-0.9c-0.3-0.4-0.6-0.8-0.8-1.3
			c-0.2-0.5-0.3-1-0.3-1.6c0-0.9,0.2-1.7,0.5-2.4s0.8-1.2,1.3-1.6c0.6-0.4,1.2-0.7,2-0.9c0.7-0.2,1.5-0.3,2.3-0.3
			c0.9,0,1.7,0.1,2.4,0.4c0.8,0.2,1.4,0.6,2,1.1c0.6,0.5,1,1,1.4,1.7c0.3,0.7,0.6,1.5,0.6,2.4h-3.2c-0.1-0.8-0.5-1.4-1-1.8
			c-0.5-0.4-1.3-0.6-2.3-0.6c-0.4,0-0.7,0-1.1,0.1c-0.3,0.1-0.6,0.2-0.9,0.3c-0.3,0.1-0.5,0.4-0.6,0.6s-0.2,0.6-0.2,1
			c0,0.3,0.1,0.6,0.4,0.9s0.6,0.4,1.1,0.6c0.3,0.1,0.7,0.2,1,0.3c0.4,0.1,0.7,0.2,1.1,0.3c0.4,0.1,0.8,0.2,1.1,0.3
			c0.4,0.1,0.7,0.2,1.1,0.3c0.5,0.2,1,0.4,1.5,0.6c0.5,0.3,0.9,0.6,1.2,1s0.6,0.8,0.8,1.3c0.2,0.5,0.3,1,0.3,1.6
			c0,1-0.2,1.9-0.5,2.6c-0.4,0.7-0.8,1.3-1.4,1.7c-0.6,0.4-1.3,0.8-2.1,1c-0.8,0.2-1.6,0.3-2.5,0.3c-0.9,0-1.8-0.1-2.6-0.4
			c-0.8-0.3-1.5-0.7-2.1-1.2c-0.6-0.5-1-1.1-1.4-1.9C130.9,60.1,130.7,59.2,130.7,58.3z"/>
		<path class="st10" d="M148.5,46.7h3.4l3.7,13.6l3.5-13.6h3.3L157,67.2c-0.2,0.9-0.5,1.7-0.9,2.2s-0.7,1-1.2,1.3
			c-0.5,0.3-1,0.5-1.5,0.6s-1.2,0.1-1.9,0.1H150v-3.1h1.9c0.2,0,0.5,0,0.7-0.1s0.4-0.1,0.5-0.2s0.3-0.3,0.4-0.4s0.2-0.4,0.3-0.7
			l0.8-2.9l-1.2,0L148.5,46.7z"/>
		<path class="st10" d="M167.4,58.3h3c0.1,0.9,0.5,1.7,1.1,2.1c0.6,0.5,1.4,0.7,2.4,0.7c0.4,0,0.8,0,1.2-0.1
			c0.4-0.1,0.8-0.2,1.1-0.3c0.3-0.2,0.6-0.4,0.8-0.7s0.3-0.7,0.3-1.2c0-0.4-0.1-0.7-0.4-1c-0.3-0.3-0.7-0.5-1.2-0.6
			c-0.7-0.2-1.4-0.5-2.1-0.6c-0.6-0.2-1.3-0.3-2-0.5c-0.5-0.1-1.1-0.3-1.5-0.6c-0.5-0.3-0.9-0.6-1.2-0.9c-0.3-0.4-0.6-0.8-0.8-1.3
			c-0.2-0.5-0.3-1-0.3-1.6c0-0.9,0.2-1.7,0.5-2.4s0.8-1.2,1.3-1.6c0.6-0.4,1.2-0.7,2-0.9c0.7-0.2,1.5-0.3,2.3-0.3
			c0.9,0,1.7,0.1,2.4,0.4c0.8,0.2,1.4,0.6,2,1.1c0.6,0.5,1,1,1.4,1.7c0.3,0.7,0.6,1.5,0.6,2.4h-3.2c-0.1-0.8-0.5-1.4-1-1.8
			c-0.5-0.4-1.3-0.6-2.3-0.6c-0.4,0-0.7,0-1.1,0.1c-0.3,0.1-0.6,0.2-0.9,0.3c-0.3,0.1-0.5,0.4-0.6,0.6s-0.2,0.6-0.2,1
			c0,0.3,0.1,0.6,0.4,0.9s0.6,0.4,1.1,0.6c0.3,0.1,0.7,0.2,1,0.3c0.4,0.1,0.7,0.2,1.1,0.3c0.4,0.1,0.8,0.2,1.1,0.3
			c0.4,0.1,0.7,0.2,1.1,0.3c0.5,0.2,1,0.4,1.5,0.6c0.5,0.3,0.9,0.6,1.2,1s0.6,0.8,0.8,1.3c0.2,0.5,0.3,1,0.3,1.6
			c0,1-0.2,1.9-0.5,2.6c-0.4,0.7-0.8,1.3-1.4,1.7c-0.6,0.4-1.3,0.8-2.1,1c-0.8,0.2-1.6,0.3-2.5,0.3c-0.9,0-1.8-0.1-2.6-0.4
			c-0.8-0.3-1.5-0.7-2.1-1.2c-0.6-0.5-1-1.1-1.4-1.9C167.6,60.1,167.4,59.2,167.4,58.3z"/>
		<path class="st10" d="M185.3,46.7h3.1V41h3.2v5.6h6l0,3.1h-6v9.1c0,0.4,0.1,0.7,0.2,0.9s0.3,0.5,0.5,0.6c0.2,0.2,0.5,0.3,0.7,0.4
			c0.3,0.1,0.5,0.1,0.8,0.1c0.3,0,0.5,0,0.8-0.1c0.3-0.1,0.5-0.2,0.7-0.4c0.2-0.2,0.4-0.4,0.5-0.6s0.2-0.6,0.2-0.9v-0.9h3.2v0.8
			c0,0.9-0.2,1.7-0.5,2.4c-0.3,0.7-0.7,1.2-1.2,1.7c-0.5,0.4-1.1,0.8-1.7,1s-1.3,0.3-2,0.3c-0.7,0-1.4-0.1-2.1-0.3s-1.3-0.5-1.8-1
			c-0.5-0.4-0.9-1-1.2-1.7c-0.3-0.7-0.5-1.5-0.5-2.4l0-8.9h-3.1L185.3,46.7z"/>
		<path class="st10" d="M203.9,57.9v-5.2c0-1,0.2-1.8,0.5-2.6c0.3-0.8,0.8-1.4,1.4-2c0.6-0.5,1.3-1,2.1-1.3c0.8-0.3,1.7-0.5,2.7-0.5
			c1,0,1.9,0.1,2.7,0.4c0.8,0.3,1.5,0.7,2.1,1.3c0.6,0.5,1,1.2,1.4,2c0.3,0.8,0.5,1.7,0.5,2.6v3.7h-10.1V58c0,0.4,0,0.8,0.1,1.1
			c0.1,0.4,0.3,0.7,0.5,1c0.3,0.3,0.6,0.6,1,0.8c0.4,0.2,1,0.3,1.7,0.3c0.9,0,1.6-0.3,2.2-0.8c0.6-0.5,0.9-1.2,1.1-2.1h3.3
			c-0.1,0.9-0.4,1.8-0.7,2.5c-0.4,0.7-0.8,1.4-1.4,1.9s-1.2,0.9-2,1.2c-0.8,0.3-1.6,0.4-2.5,0.4c-1,0-1.9-0.1-2.7-0.4
			c-0.8-0.3-1.5-0.7-2.1-1.3c-0.6-0.6-1-1.2-1.3-2C204.1,59.8,203.9,58.9,203.9,57.9z M207.2,53.4h6.8v-0.7c0-0.4-0.1-0.7-0.2-1.1
			c-0.1-0.4-0.3-0.7-0.5-1c-0.3-0.3-0.6-0.6-1.1-0.8c-0.4-0.2-1-0.3-1.7-0.3c-1.1,0-1.9,0.3-2.5,0.8c-0.6,0.6-0.9,1.3-0.9,2.4V53.4z
			"/>
		<path class="st10" d="M221.9,64V46.7h3.2v0.9c0.3-0.3,0.7-0.6,1.3-0.9c0.5-0.2,1.1-0.4,1.7-0.4c0.4,0,0.8,0,1.1,0.1
			s0.6,0.2,0.8,0.3s0.5,0.3,0.7,0.5s0.4,0.4,0.6,0.7c0.3-0.3,0.5-0.6,0.8-0.8s0.5-0.4,0.8-0.5s0.5-0.2,0.8-0.2
			c0.3,0,0.6-0.1,0.9-0.1c0.8,0,1.6,0.1,2.2,0.4c0.6,0.3,1.1,0.7,1.5,1.1s0.7,1,0.8,1.6c0.2,0.6,0.3,1.2,0.3,1.8V64h-3.2V51.6
			c0-0.6-0.1-1.1-0.4-1.5c-0.3-0.4-0.7-0.6-1.3-0.6c-0.8,0-1.3,0.3-1.7,0.8c-0.3,0.5-0.5,1.3-0.5,2.5V64H229V51.6
			c0-0.6-0.1-1.1-0.4-1.5c-0.3-0.4-0.7-0.6-1.2-0.6c-0.4,0-0.8,0.1-1.1,0.2s-0.5,0.4-0.7,0.7c-0.2,0.3-0.3,0.7-0.4,1.1
			c-0.1,0.4-0.1,0.9-0.1,1.5v11H221.9z"/>
		<path class="st10" d="M244.2,64v-3.1h4.8V43.6h-4.6v-3.1h7.9v20.4h4.7V64H244.2z"/>
		<path class="st10" d="M262.5,49.8v-3.1h8.1v14.2h4.7V64h-12.8v-3.1h4.9V49.8H262.5z M267.1,44.4v-4.2h3.8v4.2H267.1z"/>
		<path class="st10" d="M281.8,64v-4.2h3.8V64H281.8z"/>
		<path class="st10" d="M292.4,57.9v-5.2c0-1,0.2-1.8,0.5-2.6c0.3-0.8,0.8-1.4,1.4-2c0.6-0.5,1.3-1,2.1-1.3c0.8-0.3,1.7-0.5,2.7-0.5
			c1,0,1.9,0.1,2.7,0.4c0.8,0.3,1.5,0.7,2.1,1.3c0.6,0.5,1,1.2,1.3,2c0.3,0.8,0.5,1.7,0.5,2.6v5.2c0,1-0.2,1.8-0.5,2.6
			s-0.8,1.5-1.4,2s-1.3,1-2.1,1.3s-1.7,0.5-2.7,0.5c-1,0-1.9-0.1-2.7-0.4c-0.8-0.3-1.5-0.7-2.1-1.3c-0.6-0.6-1-1.2-1.3-2
			C292.5,59.8,292.4,58.9,292.4,57.9z M295.6,58c0,0.4,0,0.8,0.1,1.1c0.1,0.4,0.3,0.7,0.5,1c0.3,0.3,0.6,0.6,1,0.8
			c0.4,0.2,1,0.3,1.7,0.3c1.1,0,1.9-0.3,2.5-0.9c0.6-0.6,0.9-1.4,0.9-2.4v-5.2c0-0.4-0.1-0.7-0.2-1.1c-0.1-0.4-0.3-0.7-0.5-1
			s-0.6-0.6-1-0.8s-1-0.3-1.7-0.3c-1.1,0-1.9,0.3-2.5,0.8c-0.6,0.6-0.9,1.4-0.9,2.4V58z"/>
		<path class="st10" d="M312.2,64V46.7h3.2v1c0.2-0.2,0.4-0.4,0.6-0.6c0.3-0.2,0.5-0.3,0.8-0.4c0.3-0.1,0.6-0.2,0.9-0.3
			c0.3-0.1,0.6-0.1,0.8-0.1c0.8,0,1.6,0.1,2.3,0.3c0.7,0.2,1.3,0.6,1.9,1s1,1,1.3,1.7c0.3,0.7,0.5,1.5,0.5,2.5v0.3h-3.2v-0.5
			c0-0.4-0.1-0.8-0.2-1.1s-0.4-0.5-0.6-0.7c-0.3-0.2-0.6-0.3-0.9-0.4c-0.3-0.1-0.7-0.1-1-0.1c-0.3,0-0.6,0.1-1,0.2
			c-0.3,0.1-0.7,0.3-1,0.6c-0.3,0.3-0.6,0.6-0.8,1.1c-0.2,0.4-0.3,1-0.3,1.6v11H312.2z"/>
		<path class="st10" d="M329.1,57.9v-5.2c0-1,0.2-1.8,0.5-2.6c0.3-0.8,0.8-1.4,1.3-2c0.6-0.5,1.3-1,2.1-1.3s1.7-0.5,2.7-0.5
			c0.3,0,0.7,0,1,0.1c0.3,0.1,0.6,0.2,0.9,0.3c0.3,0.1,0.6,0.3,0.8,0.4c0.2,0.2,0.4,0.3,0.6,0.5v-1h3.2v18.5c0,1.2-0.2,2.2-0.6,3
			c-0.4,0.8-0.9,1.4-1.5,1.9c-0.6,0.5-1.3,0.8-2.1,1s-1.6,0.3-2.4,0.3c-0.8,0-1.5-0.1-2.2-0.3c-0.7-0.2-1.3-0.5-1.8-0.9
			s-1-0.9-1.4-1.5c-0.4-0.6-0.6-1.3-0.8-2h3.3c0.2,0.5,0.6,1,1.1,1.3c0.5,0.3,1.1,0.5,1.7,0.5c0.4,0,0.8,0,1.2-0.1
			c0.4-0.1,0.7-0.2,1.1-0.4c0.3-0.2,0.6-0.5,0.8-1c0.2-0.4,0.3-1,0.3-1.7v-2.4c-0.1,0.2-0.3,0.3-0.6,0.5c-0.2,0.2-0.5,0.3-0.8,0.4
			s-0.6,0.2-0.9,0.3c-0.3,0.1-0.7,0.1-1,0.1c-1,0-1.9-0.1-2.7-0.4c-0.8-0.3-1.5-0.7-2.1-1.3c-0.6-0.6-1-1.2-1.3-2
			C329.3,59.8,329.1,58.9,329.1,57.9z M332.4,58c0,0.4,0,0.8,0.1,1.1c0.1,0.4,0.3,0.7,0.5,1c0.2,0.3,0.6,0.6,1,0.8
			c0.4,0.2,1,0.3,1.7,0.3c1,0,1.8-0.3,2.4-0.9c0.6-0.6,0.9-1.4,0.9-2.4v-5.2c0-0.4,0-0.7-0.1-1.1c-0.1-0.4-0.2-0.7-0.5-1
			c-0.2-0.3-0.6-0.6-1-0.8c-0.4-0.2-1-0.3-1.6-0.3c-1,0-1.9,0.3-2.4,0.8c-0.6,0.6-0.9,1.4-0.9,2.4V58z"/>
	</g>
</g>
</svg>
